<svg width="1053" height="215" viewBox="0 0 1053 215" fill="none" xmlns="http://www.w3.org/2000/svg">
<path d="M42.2041 53.7144C43.2272 50.645 48.5987 48.1724 51.1565 47.3198H187.361L235.959 0H78.6531L42.2041 35.1701V53.7144Z" fill="#00E5FF"/>
<path d="M63.9753 80.5715L1.30852 142.599L0.0296071 166.259C-0.993524 196.953 24.7553 211.021 37.7575 214.218H191.867C194.936 213.706 198.261 212.726 199.54 212.3C207.725 208.719 231.939 180.114 243.023 166.259H50.5467C46.9657 166.259 45.6442 163.275 45.431 161.783V134.925C45.9426 129.81 49.9072 128.104 51.8256 127.891H166.928L216.805 80.5715H63.9753Z" fill="#00E5FF"/>
<path d="M284 160V88H354.688V95.5H293V119.5H352.109V127H293V152.5H356V160H284ZM368 160V88H377V152.5H434V160H368ZM443 124.938V123.062C443 116.688 443.312 111.344 443.938 107.031C444.562 102.688 445.641 99.1562 447.172 96.4375C448.703 93.7188 450.781 91.6406 453.406 90.2031C456.062 88.7656 459.391 87.7969 463.391 87.2969C467.391 86.7656 472.203 86.5 477.828 86.5H496.719C503.156 86.5 508.578 86.8125 512.984 87.4375C517.422 88.0312 520.984 89.2344 523.672 91.0469C526.391 92.8281 528.359 95.4688 529.578 98.9688C530.797 102.438 531.406 107.047 531.406 112.797H522.406C522.406 108.266 522 104.75 521.188 102.25C520.375 99.7188 519 97.8906 517.062 96.7656C515.156 95.6406 512.547 94.9531 509.234 94.7031C505.922 94.4219 501.75 94.2812 496.719 94.2812H477.828C473.359 94.2812 469.594 94.4219 466.531 94.7031C463.469 94.9531 460.969 95.5625 459.031 96.5312C457.125 97.4688 455.656 98.9688 454.625 101.031C453.625 103.094 452.938 105.906 452.562 109.469C452.188 113.031 452 117.562 452 123.062V124.938C452 130.25 452.188 134.656 452.562 138.156C452.938 141.656 453.625 144.453 454.625 146.547C455.656 148.641 457.125 150.203 459.031 151.234C460.969 152.266 463.469 152.938 466.531 153.25C469.594 153.562 473.359 153.719 477.828 153.719H496.719C501.75 153.719 505.922 153.609 509.234 153.391C512.547 153.172 515.156 152.531 517.062 151.469C519 150.406 520.375 148.641 521.188 146.172C522 143.672 522.406 140.172 522.406 135.672H531.406C531.406 141.422 530.797 146.016 529.578 149.453C528.359 152.891 526.391 155.484 523.672 157.234C520.984 158.953 517.422 160.094 512.984 160.656C508.578 161.219 503.156 161.5 496.719 161.5H477.828C470.797 161.5 465.016 161.016 460.484 160.047C455.953 159.109 452.406 157.359 449.844 154.797C447.312 152.234 445.531 148.547 444.5 143.734C443.5 138.922 443 132.656 443 124.938ZM578.422 161.5C571.391 161.5 565.609 161.016 561.078 160.047C556.547 159.109 553 157.359 550.438 154.797C547.906 152.234 546.125 148.547 545.094 143.734C544.094 138.922 543.594 132.656 543.594 124.938V123.062C543.594 116.688 543.906 111.344 544.531 107.031C545.156 102.688 546.234 99.1562 547.766 96.4375C549.297 93.7188 551.375 91.6406 554 90.2031C556.656 88.7656 559.984 87.7969 563.984 87.2969C567.984 86.7656 572.797 86.5 578.422 86.5H597.312C602.938 86.5 607.75 86.7656 611.75 87.2969C615.75 87.7969 619.062 88.7656 621.688 90.2031C624.344 91.6406 626.438 93.7188 627.969 96.4375C629.5 99.1562 630.578 102.688 631.203 107.031C631.828 111.344 632.141 116.688 632.141 123.062V124.938C632.141 132.656 631.625 138.922 630.594 143.734C629.594 148.547 627.812 152.234 625.25 154.797C622.719 157.359 619.188 159.109 614.656 160.047C610.125 161.016 604.344 161.5 597.312 161.5H578.422ZM578.422 153.719H597.312C601.781 153.719 605.547 153.562 608.609 153.25C611.672 152.938 614.156 152.266 616.062 151.234C618 150.203 619.469 148.641 620.469 146.547C621.5 144.453 622.203 141.656 622.578 138.156C622.953 134.656 623.141 130.25 623.141 124.938V123.062C623.141 117.562 622.953 113.031 622.578 109.469C622.203 105.906 621.5 103.094 620.469 101.031C619.469 98.9688 618 97.4688 616.062 96.5312C614.156 95.5625 611.672 94.9531 608.609 94.7031C605.547 94.4219 601.781 94.2812 597.312 94.2812H578.422C573.953 94.2812 570.188 94.4219 567.125 94.7031C564.062 94.9531 561.562 95.5625 559.625 96.5312C557.719 97.4688 556.25 98.9688 555.219 101.031C554.219 103.094 553.531 105.906 553.156 109.469C552.781 113.031 552.594 117.562 552.594 123.062V124.938C552.594 130.25 552.781 134.656 553.156 138.156C553.531 141.656 554.219 144.453 555.219 146.547C556.25 148.641 557.719 150.203 559.625 151.234C561.562 152.266 564.062 152.938 567.125 153.25C570.188 153.562 573.953 153.719 578.422 153.719ZM647.375 160V88H660.781L704.328 146.734L747.219 88H760.625V160H751.625V96.1562L708.641 155.266H700.484L656.375 96.1562V160H647.375ZM778.812 160V88H849.5V95.5H787.812V119.5H846.922V127H787.812V152.5H850.812V160H778.812ZM863 88H911.188C918.219 88 923.875 88.3125 928.156 88.9375C932.469 89.5625 935.734 90.6406 937.953 92.1719C940.172 93.7031 941.672 95.7969 942.453 98.4531C943.234 101.109 943.625 104.469 943.625 108.531V110.406C943.625 114.156 943.172 117.391 942.266 120.109C941.391 122.797 939.688 124.984 937.156 126.672C934.625 128.328 930.875 129.5 925.906 130.188L941.562 160H932.562L917.234 130.844C916.609 130.875 915.953 130.891 915.266 130.891C914.609 130.891 913.922 130.891 913.203 130.891H872V160H863V88ZM872 123.109H911.797C917.141 123.109 921.344 122.938 924.406 122.594C927.5 122.219 929.766 121.578 931.203 120.672C932.672 119.766 933.609 118.484 934.016 116.828C934.422 115.172 934.625 113.031 934.625 110.406V108.531C934.625 105.562 934.344 103.219 933.781 101.5C933.219 99.7812 932.094 98.5156 930.406 97.7031C928.719 96.8906 926.203 96.375 922.859 96.1562C919.516 95.9062 915.047 95.7812 909.453 95.7812H872V123.109ZM957.688 124.938V123.062C957.688 116.688 958 111.344 958.625 107.031C959.25 102.688 960.328 99.1562 961.859 96.4375C963.391 93.7188 965.469 91.6406 968.094 90.2031C970.75 88.7656 974.078 87.7969 978.078 87.2969C982.078 86.7656 986.891 86.5 992.516 86.5H1011.41C1017.84 86.5 1023.27 86.8125 1027.67 87.4375C1032.11 88.0312 1035.67 89.2344 1038.36 91.0469C1041.08 92.8281 1043.05 95.4688 1044.27 98.9688C1045.48 102.438 1046.09 107.047 1046.09 112.797H1037.09C1037.09 108.266 1036.69 104.75 1035.88 102.25C1035.06 99.7188 1033.69 97.8906 1031.75 96.7656C1029.84 95.6406 1027.23 94.9531 1023.92 94.7031C1020.61 94.4219 1016.44 94.2812 1011.41 94.2812H992.516C988.047 94.2812 984.281 94.4219 981.219 94.7031C978.156 94.9531 975.656 95.5625 973.719 96.5312C971.812 97.4688 970.344 98.9688 969.312 101.031C968.312 103.094 967.625 105.906 967.25 109.469C966.875 113.031 966.688 117.562 966.688 123.062V124.938C966.688 130.25 966.875 134.656 967.25 138.156C967.625 141.656 968.312 144.453 969.312 146.547C970.344 148.641 971.812 150.203 973.719 151.234C975.656 152.266 978.156 152.938 981.219 153.25C984.281 153.562 988.047 153.719 992.516 153.719H1011.41C1016.44 153.719 1020.61 153.609 1023.92 153.391C1027.23 153.172 1029.84 152.531 1031.75 151.469C1033.69 150.406 1035.06 148.641 1035.88 146.172C1036.69 143.672 1037.09 140.172 1037.09 135.672H1046.09C1046.09 141.422 1045.48 146.016 1044.27 149.453C1043.05 152.891 1041.08 155.484 1038.36 157.234C1035.67 158.953 1032.11 160.094 1027.67 160.656C1023.27 161.219 1017.84 161.5 1011.41 161.5H992.516C985.484 161.5 979.703 161.016 975.172 160.047C970.641 159.109 967.094 157.359 964.531 154.797C962 152.234 960.219 148.547 959.188 143.734C958.188 138.922 957.688 132.656 957.688 124.938Z" fill="black"/>
</svg>
